<svg xmlns="http://www.w3.org/2000/svg" xmlns:xlink="http://www.w3.org/1999/xlink" id="Layer_1" x="0px" y="0px" width="430px" height="410px" viewBox="0 0 430 410" style="enable-background:new 0 0 430 410;" xml:space="preserve"> <style type="text/css"> .st0{fill:#286A60;} .st1{fill:none;} .st2{fill:#FFFFFF;} .st3{fill:#69A543;} </style> <path class="st0" d="M65.2,333.2h297.9c22.9-31.3,35.2-68.9,35.2-108.3c0-26.6-5.6-52.4-16.3-75.9H46.3 C35.6,172.5,30,198.3,30,224.9C30,264.4,42.3,301.9,65.2,333.2z"></path> <path class="st1" d="M34.2,224.9c0,99.4,80.5,179.9,179.9,179.9S394,324.2,394,224.9S313.5,45,214.1,45S34.2,125.5,34.2,224.9"></path> <rect y="1" class="st1" width="430" height="407.6"></rect> <path class="st0" d="M214.1,409c-49.2,0-95.4-19.2-130.2-53.9C49.1,320.3,30,274.1,30,224.9s19.2-95.4,53.9-130.2 c34.8-34.8,81-53.9,130.2-53.9S309.5,60,344.3,94.7c34.8,34.8,53.9,81,53.9,130.2s-19.2,95.4-53.9,130.2S263.3,409,214.1,409z M214.1,49.3c-96.8,0-175.6,78.8-175.6,175.6s78.8,175.6,175.6,175.6s175.6-78.8,175.6-175.6C389.8,128,311,49.3,214.1,49.3z"></path> <path id="Path_793" class="st2" d="M276.1,68.6c0-34.2-27.8-62-62-62s-62,27.8-62,62s27.8,62,62,62l0,0 C248.4,130.6,276.1,102.9,276.1,68.6L276.1,68.6"></path> <path id="Path_807" class="st3" d="M279.3,66.1c0,36-29.2,65.2-65.2,65.2S149,102.1,149,66.1s29.2-65.2,65.2-65.2 C250.1,1,279.3,30.1,279.3,66.1 M270.9,66.1c0-31.4-25.4-56.8-56.8-56.8s-56.8,25.4-56.8,56.8s25.4,56.8,56.8,56.8 C245.5,122.9,270.9,97.5,270.9,66.1L270.9,66.1 M203.9,97.7c-1.2,1.2-3.2,1.2-4.5,0l0,0l-22.6-22.8c-1.2-1.2-1.2-3.2,0-4.5l0,0 l2.2-2.2c1.2-1.2,3.2-1.2,4.5,0l0,0l18.1,18.3l43-42.6c1.2-1.2,3.2-1.2,4.5,0l0,0l2.2,2.2c1.2,1.2,1.2,3.2,0,4.5l0,0L203.9,97.7z"></path> <g> <path id="Path_798" class="st2" d="M118.3,291.9c-2.4,1-5,1.5-7.6,1.4c-8.1,0-14.2-5.1-14.2-14.5c0-9,6.1-15.1,15-15.1 c2.3-0.1,4.7,0.3,6.8,1.3l-0.9,3c-1.8-0.8-3.8-1.2-5.8-1.2c-6.7,0-11.2,4.3-11.2,11.9c0,7,4.1,11.6,11,11.6c2.1,0,4.1-0.4,6.1-1.2 L118.3,291.9z"></path> <path id="Path_799" class="st2" d="M146.6,278.1c0,9.9-6,15.1-13.4,15.1c-7.6,0-12.9-5.9-12.9-14.6c0-9.1,5.7-15.1,13.4-15.1 C141.5,263.6,146.6,269.6,146.6,278.1 M124.3,278.6c0,6.1,3.3,11.6,9.2,11.6c5.9,0,9.2-5.4,9.2-11.9c0-5.7-3-11.7-9.2-11.7 C127.4,266.6,124.3,272.3,124.3,278.6"></path> <path id="Path_800" class="st2" d="M175.7,280.2c-0.2-4-0.5-8.8-0.4-12.4h-0.1c-1,3.4-2.2,7-3.6,10.9l-5.1,13.9h-2.8L159,279 c-1.4-4.1-2.5-7.8-3.3-11.2h-0.1c-0.1,3.6-0.3,8.4-0.6,12.7l-0.8,12.3h-3.5l2-28.7h4.7l4.9,13.9c1.2,3.5,2.2,6.7,2.9,9.7h0.1 c0.7-2.9,1.7-6.1,3-9.7l5.1-13.9h4.7l1.8,28.8h-3.6L175.7,280.2z"></path> <path id="Path_801" class="st2" d="M185.8,264.4c2.4-0.4,4.7-0.6,7.1-0.6c3.7,0,6.4,0.9,8.1,2.4c1.7,1.5,2.6,3.7,2.5,6 c0.1,2.3-0.7,4.5-2.2,6.1c-2,2.1-5.2,3.2-8.8,3.2c-1,0-2-0.1-3-0.3v11.5h-3.7V264.4z M189.5,278.3c1,0.2,2,0.3,3.1,0.3 c4.5,0,7.2-2.2,7.2-6.1c0-3.8-2.7-5.6-6.8-5.6c-1.2,0-2.3,0.1-3.5,0.3L189.5,278.3z"></path> <path id="Path_802" class="st2" d="M208.5,264.1h3.7v25.6h12.3v3.1h-16V264.1z"></path> <rect id="Rectangle_199" x="228.6" y="264.1" class="st2" width="3.7" height="28.8"></rect> <path id="Path_803" class="st2" d="M243.5,283.8l-3,9h-3.8l9.8-28.8h4.5l9.8,28.8h-4l-3.1-9H243.5z M252.9,280.9l-2.8-8.3 c-0.6-1.9-1.1-3.6-1.5-5.2h-0.1c-0.4,1.7-0.9,3.5-1.5,5.2l-2.8,8.3L252.9,280.9z"></path> <path id="Path_804" class="st2" d="M265,292.8v-28.8h4.1l9.2,14.5c1.9,3,3.6,6.1,5.2,9.3l0.1,0c-0.3-3.8-0.4-7.3-0.4-11.8v-12h3.5 v28.8h-3.8l-9.1-14.6c-2-3.1-3.8-6.3-5.4-9.6l-0.1,0c0.2,3.6,0.3,7.1,0.3,11.9v12.3L265,292.8z"></path> <path id="Path_805" class="st2" d="M313.1,291.9c-2.4,1-5,1.5-7.6,1.4c-8.1,0-14.2-5.1-14.2-14.5c0-9,6.1-15.1,15-15.1 c2.3-0.1,4.7,0.3,6.8,1.3l-0.9,3c-1.8-0.8-3.8-1.2-5.8-1.2c-6.7,0-11.2,4.3-11.2,11.9c0,7,4.1,11.6,11,11.6c2.1,0,4.1-0.4,6.1-1.2 L313.1,291.9z"></path> <path id="Path_806" class="st2" d="M332.7,279.3h-11.2v10.4H334v3.1h-16.2v-28.8h15.5v3.1h-11.8v9.1h11.2L332.7,279.3z"></path> <path class="st2" d="M70.6,239.5v-53.3H90c4.4,0,8,0.8,10.7,2.4c2.7,1.6,4.8,3.7,6,6.3c1.3,2.6,1.9,5.4,1.9,8.4 c0,3.8-0.9,7-2.6,9.5c-1.7,2.6-3.9,4.5-6.7,5.8c-2.7,1.3-5.7,2-8.9,2h-8.2v18.8H70.6z M82.3,211h7c2.2,0,3.9-0.7,5.3-2.1 c1.3-1.4,2-3.1,2-5.3c0-2.2-0.7-4.1-2-5.5c-1.3-1.4-3.1-2.1-5.4-2.1h-6.9V211z"></path> <path class="st2" d="M154.6,222.2l8.2,7.5c-1.5,2-3.4,3.9-5.7,5.6c-2.3,1.7-4.9,3.1-7.8,4.1c-2.9,1-6,1.5-9.3,1.5 c-5.4,0-10.1-1.2-14.3-3.6c-4.1-2.4-7.3-5.7-9.7-9.9c-2.3-4.2-3.5-9-3.5-14.3c0-3.9,0.7-7.6,2-11.1c1.3-3.4,3.2-6.4,5.6-9 c2.4-2.6,5.3-4.6,8.7-6c3.4-1.4,7.1-2.2,11.2-2.2c4.9,0,9.2,0.9,12.9,2.7c3.7,1.8,6.8,4.4,9.3,7.8l-8.2,7.9c-1.6-2.2-3.5-4-5.7-5.4 c-2.2-1.4-4.8-2-7.8-2c-3.2,0-5.9,0.8-8.3,2.3c-2.3,1.5-4.1,3.6-5.4,6.1c-1.3,2.6-1.9,5.4-1.9,8.5c0,3.1,0.6,6,1.9,8.5 c1.2,2.5,3,4.5,5.3,5.9c2.3,1.5,5,2.2,8.1,2.2c2.6,0,4.7-0.3,6.4-1c1.7-0.7,3.2-1.6,4.4-2.7C152.4,224.6,153.5,223.4,154.6,222.2z"></path> <path class="st2" d="M167.1,239.5v-53.3h12.1v53.3H167.1z"></path> <path class="st2" d="M187.5,222.7v-10.9h25.3v10.9H187.5z"></path> <path class="st2" d="M221.1,239.5v-53.3h20.1c5.5,0,10.4,0.9,14.7,2.8c4.3,1.9,7.7,4.8,10.1,8.8c2.4,4,3.7,9.1,3.7,15.3 c0,5.9-1.2,10.7-3.7,14.7c-2.5,3.9-5.9,6.8-10.1,8.8c-4.3,1.9-9.2,2.9-14.7,2.9H221.1z M233.2,228.8h7.3c5.3,0,9.4-1.4,12.3-4.2 c2.9-2.8,4.3-6.7,4.3-11.5c0-4.9-1.3-8.8-4-11.8c-2.7-3-6.9-4.4-12.6-4.4h-7.3V228.8z"></path> <path class="st2" d="M272.2,232l7.7-8.4c1.4,1.5,3.2,3,5.5,4.4c2.3,1.4,5,2.2,8.1,2.2c1.2,0,2.4-0.2,3.6-0.7c1.2-0.5,2.1-1.1,2.9-2 c0.8-0.9,1.2-1.9,1.2-3.2c0-2-1-3.5-2.9-4.6c-1.9-1.1-4.9-2.2-9.1-3.2c-4-1-7.4-2.8-10.1-5.4c-2.7-2.6-4-5.9-4-9.9 c0-3,0.7-5.7,2.2-8.2c1.4-2.5,3.6-4.5,6.5-6c2.9-1.5,6.5-2.3,10.9-2.3c3.6,0,6.7,0.5,9.1,1.4c2.5,0.9,4.5,2,5.9,3.1 c1.5,1.1,2.5,2,3.1,2.7l-6.9,7.7c-1.2-0.9-2.7-1.9-4.6-3.1c-1.9-1.1-4.2-1.7-6.8-1.7c-1.7,0-3.3,0.5-4.8,1.5 c-1.5,1-2.2,2.2-2.2,3.6c0,1.8,1,3.3,2.9,4.4c1.9,1.1,4.6,2,7.9,2.8c2.6,0.6,5.1,1.6,7.5,2.9c2.4,1.3,4.4,3.1,5.9,5.4 c1.5,2.3,2.3,5.3,2.3,8.9c0,3.2-0.9,6-2.7,8.5c-1.8,2.5-4.3,4.5-7.3,5.9c-3.1,1.4-6.5,2.2-10.4,2.2c-3.5,0-6.6-0.4-9.3-1.3 c-2.7-0.9-5.1-2-7.1-3.3C275.3,234.9,273.6,233.5,272.2,232z"></path> <path class="st2" d="M317.4,232l7.7-8.4c1.4,1.5,3.2,3,5.5,4.4c2.3,1.4,5,2.2,8.1,2.2c1.2,0,2.4-0.2,3.6-0.7c1.2-0.5,2.1-1.1,2.9-2 c0.8-0.9,1.2-1.9,1.2-3.2c0-2-1-3.5-2.9-4.6c-1.9-1.1-4.9-2.2-9.1-3.2c-4-1-7.4-2.8-10.1-5.4c-2.7-2.6-4-5.9-4-9.9 c0-3,0.7-5.7,2.2-8.2c1.4-2.5,3.6-4.5,6.5-6c2.9-1.5,6.5-2.3,10.9-2.3c3.6,0,6.7,0.5,9.1,1.4c2.5,0.9,4.5,2,5.9,3.1 c1.5,1.1,2.5,2,3.1,2.7l-6.9,7.7c-1.2-0.9-2.7-1.9-4.6-3.1c-1.9-1.1-4.2-1.7-6.8-1.7c-1.7,0-3.3,0.5-4.8,1.5 c-1.5,1-2.2,2.2-2.2,3.6c0,1.8,1,3.3,2.9,4.4c1.9,1.1,4.6,2,7.9,2.8c2.6,0.6,5.1,1.6,7.5,2.9c2.4,1.3,4.4,3.1,5.9,5.4 c1.5,2.3,2.3,5.3,2.3,8.9c0,3.2-0.9,6-2.7,8.5c-1.8,2.5-4.3,4.5-7.3,5.9c-3.1,1.4-6.5,2.2-10.4,2.2c-3.5,0-6.6-0.4-9.3-1.3 c-2.7-0.9-5.1-2-7.1-3.3C320.5,234.9,318.8,233.5,317.4,232z"></path> </g> </svg>