<?xml version="1.0" encoding="UTF-8" standalone="no"?>
<svg
   id="Venus_channel_Imagem"
   viewBox="0 0 380.57002 134.27477"
   version="1.1"
   sodipodi:docname="Venus_channel.svg"
   width="380.57001"
   height="134.27477"
   inkscape:version="1.2.2 (732a01da63, 2022-12-09)"
   xmlns:inkscape="http://www.inkscape.org/namespaces/inkscape"
   xmlns:sodipodi="http://sodipodi.sourceforge.net/DTD/sodipodi-0.dtd"
   xmlns="http://www.w3.org/2000/svg"
   xmlns:svg="http://www.w3.org/2000/svg">
  <sodipodi:namedview
     id="namedview11"
     pagecolor="#505050"
     bordercolor="#eeeeee"
     borderopacity="1"
     inkscape:showpageshadow="0"
     inkscape:pageopacity="0"
     inkscape:pagecheckerboard="0"
     inkscape:deskcolor="#505050"
     showgrid="false"
     inkscape:zoom="3.5314521"
     inkscape:cx="190.28999"
     inkscape:cy="67.111203"
     inkscape:window-width="1920"
     inkscape:window-height="1009"
     inkscape:window-x="-8"
     inkscape:window-y="-8"
     inkscape:window-maximized="1"
     inkscape:current-layer="Venus_channel_Imagem" />
  <defs
     id="defs4">
    <style
       id="style2">.cls-1{fill:#420299;}</style>
  </defs>
  <path
     class="cls-1"
     d="m 127.54,3.49 c -3.65,2.5 -7.17,5.2 -10.71,7.87 -4.1,3.1 -8.24,6.17 -12.23,9.41 -3.16,2.56 -6.13,5.36 -9.18,8.06 -3.91,3.48 -7.95,6.82 -11.67,10.49 -4.44,4.37 -8.56,9.06 -12.88,13.56 -5.42,5.64 -10.9,11.24 -16.37,16.84 -4.1,4.2 -8.21,8.4 -12.35,12.56 -4.87,4.9 -9.78,9.77 -14.69,14.63 -1.99,1.96 -4.05,3.85 -6.08,5.77 -0.65,0.62 -1.14,0.48 -1.45,-0.31 -0.6,-1.52 -1.29,-3.02 -1.72,-4.58 C 17.72,95.99 17.45,94.12 17.1,92.28 16.01,86.43 14.78,80.61 13.88,74.73 12.75,67.39 11.89,60 10.93,52.63 10.58,49.98 10.17,47.33 9.97,44.66 9.7,41.12 9.64,37.56 9.43,34.02 9.4,33.54 9.12,32.86 8.75,32.66 7.84,32.15 6.4,32.58 5.74,33.47 3.04,37.14 0.76,40.87 0.38,42.44 0.17,43.31 0.06,44.02 0,44.46 c 0,0.45 0,1.14 0.02,1.99 0,0 0.22,5.32 0.35,11.03 0.22,9.6 0.67,19.18 2.46,28.65 1.21,6.44 2.47,12.87 3.76,19.29 0.98,4.89 2.07,9.77 3.07,14.66 0.85,4.18 1.63,8.37 2.44,12.56 0.23,1.19 1.03,1.87 2.11,1.56 0.56,-0.16 1.12,-0.63 1.48,-1.11 1.83,-2.47 3.56,-5.01 5.38,-7.48 4.06,-5.54 8.12,-11.08 12.25,-16.56 2.19,-2.9 4.47,-5.73 6.83,-8.49 3.45,-4.03 6.98,-8.01 10.55,-11.94 3.49,-3.85 7.1,-7.59 10.61,-11.42 3.67,-4 7.25,-8.1 10.95,-12.08 3.3,-3.54 6.68,-7 10.08,-10.43 5.51,-5.55 11.05,-11.08 16.64,-16.56 3.45,-3.39 6.99,-6.67 10.49,-10 2.25,-2.15 4.5,-4.31 6.75,-6.47 4,-3.85 7.99,-7.71 12,-11.55 2.16,-2.07 4.19,-4.34 6.59,-6.09 1.53,-1.12 2.25,-2.24 2.14,-4.02 h -4.32 l -5.08,3.5 z"
     id="path6" />
  <path
     class="cls-1"
     d="m 379.41,40.58 c -2.08,0.02 -4.15,0 -6.23,0.07 -0.79,0.02 -1.6,0.15 -2.35,0.37 -5.4,1.56 -10.83,3.05 -16.18,4.78 -4.97,1.6 -9.89,3.41 -14.78,5.25 -4.59,1.73 -9.14,3.58 -13.66,5.48 -5.18,2.18 -10.32,4.47 -15.48,6.69 -0.84,0.36 -1.69,0.75 -2.57,0.99 -1.37,0.37 -1.76,0.11 -1.84,-1.32 -0.2,-3.54 -1.25,-6.79 -3.03,-9.85 -1.02,-1.75 -2.41,-2.7 -4.19,-2.25 -1.49,0.38 -2.98,0.96 -4.31,1.73 -4.92,2.82 -9.7,5.88 -14.66,8.63 -6.19,3.43 -12.74,6.07 -19.47,8.23 -1.96,0.63 -3.92,1.33 -5.94,1.71 -2.97,0.56 -5.82,0.29 -8.51,-1.45 -1.59,-1.03 -2.82,-2.32 -4.02,-3.7 -1.4,-1.6 -2.54,-1.74 -4.28,-0.57 -1.51,1.02 -3.03,2.04 -4.56,3.04 -2.69,1.78 -5.39,3.54 -8.07,5.32 -1.59,1.05 -2.15,1.02 -3.24,-0.61 -1.08,-1.61 -1.99,-3.34 -2.96,-5.03 -0.73,-1.28 -1.87,-1.52 -3.1,-0.69 -4.37,2.94 -8.73,5.9 -13.15,8.76 -3.18,2.06 -6.43,4.01 -9.68,5.96 -2.15,1.29 -4.18,1.21 -6.12,-0.61 -2.1,-1.96 -4.34,-3.77 -6.52,-5.64 -1.72,-1.48 -3.77,-2.35 -5.97,-1.95 -2.09,0.38 -4.1,1.27 -6.11,2.03 -1.19,0.45 -2.32,1.07 -3.44,1.68 -2.67,1.44 -5.36,2.84 -7.95,4.41 -2.46,1.49 -4.06,1.26 -5.93,-0.97 -1.51,-1.81 -3.08,-3.56 -4.73,-5.24 -0.96,-0.99 -2.28,-1.2 -3.57,-0.73 -1.98,0.72 -3.97,1.46 -5.87,2.36 -6.39,3.01 -12.58,6.39 -18.66,10 -4.97,2.96 -10.02,5.8 -15.13,8.52 -4.9,2.61 -9.87,5.1 -14.9,7.44 -3.14,1.46 -6.44,2.57 -9.69,3.79 -0.54,0.2 -1.18,0.21 -1.77,0.22 -1.49,0.03 -2.05,-0.37 -2.29,-1.55 -0.2,-1.01 0.41,-1.8 1.64,-2.3 1.43,-0.58 2.89,-1.13 4.22,-1.89 6.77,-3.86 13.02,-8.43 18.14,-14.36 1.08,-1.25 1.87,-2.77 2.66,-4.23 0.32,-0.59 0.48,-1.42 0.36,-2.08 -0.57,-3.23 -3.7,-5.54 -6.93,-5.05 -1.97,0.3 -3.95,0.74 -5.81,1.42 -2.96,1.08 -5.97,2.15 -8.69,3.69 -5.35,3.03 -10.56,6.31 -14.17,11.56 -2.38,3.46 -4.4,6.97 -3.99,11.39 0.06,1.08 0.08,2.16 0.18,3.23 0.2,2.13 1.34,3.84 2.96,5.02 2.72,1.98 5.85,2.72 9.21,2.05 4.12,-0.81 8.21,-1.77 12.04,-3.54 8.45,-3.9 16.87,-7.86 25.28,-11.83 3.75,-1.77 7.46,-3.65 11.19,-5.46 3.19,-1.55 6.39,-3.11 9.59,-4.64 4.14,-1.98 8.28,-3.96 12.44,-5.89 1.25,-0.58 2.25,-0.3 3.07,0.81 0.83,1.12 1.63,2.27 2.32,3.48 0.77,1.36 1.44,2.73 2.98,3.44 1.91,0.89 3.9,1.5 5.89,0.69 1.49,-0.61 2.86,-1.6 4.16,-2.58 1.76,-1.32 3.29,-2.94 5.12,-4.15 2.22,-1.46 4.62,-2.66 6.99,-3.87 0.44,-0.23 1.21,-0.11 1.7,0.12 0.97,0.46 1.93,1 2.74,1.69 1.64,1.39 3.15,2.94 4.77,4.37 2.27,2 4.8,3.45 7.96,2.47 1.75,-0.54 3.48,-1.25 5.06,-2.16 4.54,-2.59 9.01,-5.31 13.49,-8.02 1.05,-0.64 2,-1.45 3.01,-2.16 0.62,-0.44 1.24,-0.89 1.91,-1.23 1.38,-0.71 2.32,-0.42 3.12,0.91 0.44,0.72 0.76,1.52 1.28,2.16 0.91,1.13 1.76,2.45 2.95,3.2 2.33,1.46 4.72,0.72 6.86,-0.66 2.69,-1.73 5.33,-3.52 7.93,-5.38 1.74,-1.25 3.25,-1.22 5.01,0.04 1.21,0.86 2.65,1.56 4.09,1.92 4.85,1.23 9.74,1.07 14.36,-0.82 4.01,-1.64 7.92,-3.58 11.72,-5.69 4.68,-2.59 9.16,-5.53 13.78,-8.23 3.09,-1.81 6.24,-3.52 9.4,-5.21 1.79,-0.95 2.83,-0.54 3.3,1.41 0.72,2.92 0.7,5.81 -1.35,8.3 -1.04,1.26 -2.12,2.5 -3.22,3.71 -1.02,1.13 -1.27,2.55 -0.29,3.01 1.58,0.76 3.37,1.71 5,1.59 1.93,-0.15 3.83,-1.23 5.64,-2.12 6.49,-3.17 12.9,-6.5 19.41,-9.64 6.04,-2.92 12.13,-5.73 18.26,-8.47 4.41,-1.97 8.88,-3.79 13.36,-5.59 2.44,-0.98 4.95,-1.77 7.43,-2.63 2.64,-0.91 5.35,-1.65 7.9,-2.76 1.89,-0.82 3.8,-1.15 5.8,-1.22 0.56,-0.02 1.12,-0.06 1.68,-0.09 1.06,-0.05 1.15,-0.78 1.16,-1.6 0,-0.82 -0.2,-1.44 -1.19,-1.43 z M 73.64,97.43 c -0.29,-0.42 -0.2,-1.36 0.09,-1.86 2.64,-4.59 6.24,-8.28 10.86,-10.89 1.49,-0.84 3.09,-1.49 4.68,-2.13 1.61,-0.65 3.7,0.59 3.71,2.49 -0.2,0.3 -0.5,0.91 -0.94,1.38 -3.41,3.64 -7.43,6.51 -11.71,9.03 -1.19,0.7 -2.37,1.45 -3.57,2.12 -0.41,0.23 -0.9,0.47 -1.34,0.44 -0.63,-0.05 -1.49,-0.17 -1.77,-0.58 z"
     id="path8" />
</svg>
